G04*
G04 #@! TF.GenerationSoftware,Altium Limited,Altium Designer,25.1.2 (22)*
G04*
G04 Layer_Color=128*
%FSLAX44Y44*%
%MOMM*%
G71*
G04*
G04 #@! TF.SameCoordinates,DB710AA7-E77E-4036-8C0A-EA680BC9F52C*
G04*
G04*
G04 #@! TF.FilePolarity,Positive*
G04*
G01*
G75*
%ADD26R,0.8000X0.3500*%
%ADD27R,0.3500X0.8000*%
%ADD28R,0.7000X0.4000*%
%ADD29R,0.5000X0.6000*%
%ADD30R,0.3500X0.6000*%
%ADD31R,0.6800X0.7800*%
%ADD32R,0.4000X0.7000*%
%ADD33R,0.2100X0.3100*%
D26*
X20500Y222500D02*
D03*
Y217500D02*
D03*
Y212500D02*
D03*
Y207500D02*
D03*
Y202500D02*
D03*
Y197500D02*
D03*
Y192500D02*
D03*
Y187500D02*
D03*
Y182500D02*
D03*
Y177500D02*
D03*
Y172500D02*
D03*
Y167500D02*
D03*
Y162500D02*
D03*
Y157500D02*
D03*
Y152500D02*
D03*
Y147500D02*
D03*
X109500Y222500D02*
D03*
Y217500D02*
D03*
Y212500D02*
D03*
Y207500D02*
D03*
Y202500D02*
D03*
Y197500D02*
D03*
Y192500D02*
D03*
Y187500D02*
D03*
Y182500D02*
D03*
Y177500D02*
D03*
Y172500D02*
D03*
Y167500D02*
D03*
Y162500D02*
D03*
Y157500D02*
D03*
Y152500D02*
D03*
Y147500D02*
D03*
D27*
X27500Y140500D02*
D03*
X32500D02*
D03*
X37500D02*
D03*
X42500D02*
D03*
X27500Y229500D02*
D03*
X32500D02*
D03*
X37500D02*
D03*
X42500D02*
D03*
X47500D02*
D03*
X52500D02*
D03*
X57500D02*
D03*
X62500D02*
D03*
X67500D02*
D03*
X72500D02*
D03*
X77500D02*
D03*
X82500D02*
D03*
X87500D02*
D03*
X92500D02*
D03*
X97500D02*
D03*
X102500D02*
D03*
Y140500D02*
D03*
X97500D02*
D03*
X92500D02*
D03*
X87500D02*
D03*
X82500D02*
D03*
X77500D02*
D03*
X72500D02*
D03*
X67500D02*
D03*
X62500D02*
D03*
X57500D02*
D03*
X52500D02*
D03*
X47500D02*
D03*
D28*
X147500Y152000D02*
D03*
Y143000D02*
D03*
X10000Y195500D02*
D03*
Y204500D02*
D03*
Y179500D02*
D03*
Y170500D02*
D03*
X120000Y214500D02*
D03*
Y205500D02*
D03*
X130000Y214500D02*
D03*
Y205500D02*
D03*
Y223000D02*
D03*
Y232000D02*
D03*
X137500Y180500D02*
D03*
Y189500D02*
D03*
D29*
X161500Y150000D02*
D03*
Y135000D02*
D03*
X198500Y150000D02*
D03*
Y135000D02*
D03*
D30*
X167500Y150000D02*
D03*
X182500Y135000D02*
D03*
X192500Y150000D02*
D03*
X172500D02*
D03*
X177500D02*
D03*
X182500D02*
D03*
X187500D02*
D03*
X172500Y135000D02*
D03*
X177500D02*
D03*
X167500D02*
D03*
X187500D02*
D03*
X192500D02*
D03*
D31*
X123350Y156150D02*
D03*
X136650D02*
D03*
Y138850D02*
D03*
X123350D02*
D03*
D32*
X167000Y200000D02*
D03*
X158000D02*
D03*
X53000Y240000D02*
D03*
X62000D02*
D03*
X65500Y130000D02*
D03*
X74500D02*
D03*
X129500Y167500D02*
D03*
X120500D02*
D03*
X158000Y170000D02*
D03*
X167000D02*
D03*
X70500Y240000D02*
D03*
X79500D02*
D03*
D33*
X159250Y180450D02*
D03*
X165750D02*
D03*
Y189550D02*
D03*
X159250D02*
D03*
M02*
