G04 Output by ViewMate Deluxe V11.24.15  PentaLogix*
G04 Sat Dec 28 19:11:40 2024*
%IPPOS*%
%FSLAX25Y25*%
%MOIN*%
%ADD10C,0.011811*%

%LPD*%
X0Y0D2*G36*X37998Y54269D2*G1X37965D1*X37841Y54265*X37721Y54254*X37608Y54236*X37499Y54214*X37401Y54189*X37306Y54159*X37219Y54127*X37143Y54094*X37073Y54061*X37008Y54028*X36957Y53999*X36909Y53974*X36851Y53934*X36833Y53923*X36749Y53850*X36676Y53770*X36611Y53686*X36556Y53595*X36506Y53500*X36462Y53406*X36425Y53311*X36393Y53217*X36367Y53129*X36345Y53046*X36327Y52973*X36316Y52907*X36305Y52853*X36302Y52831*X36298Y52813*Y52798*X36294Y52787*Y52776*X37255Y52682*X37270Y52827*X37284Y52893*X37313Y53009*X37332Y53060*X37350Y53104*X37368Y53144*X37401Y53206*X37415Y53231*X37430Y53249*X37441Y53268*X37456Y53282*X37459Y53286*X37496Y53319*X37532Y53348*X37572Y53370*X37608Y53391*X37692Y53424*X37769Y53446*X37838Y53457*X37867Y53464*X37892*X37914Y53468*X37943*X37998Y53464*X38052Y53461*X38147Y53442*X38231Y53413*X38300Y53380*X38325Y53366*X38373Y53333*X38391Y53322*X38406Y53308*X38417Y53300*X38424Y53293*X38453Y53260*X38482Y53220*X38526Y53144*X38555Y53060*X38576Y52980*X38591Y52907*X38595Y52878*Y52853*X38598Y52827*Y52798*X38595Y52743*X38591Y52689*X38566Y52580*X38537Y52482*X38500Y52390*X38478Y52350*X38446Y52285*X38431Y52256*X38417Y52234*X38406Y52219*X38402Y52208*X38398Y52205*X38365Y52161*X38322Y52106*X38271Y52048*X38209Y51986*X38147Y51917*X38078Y51852*X37943Y51713*X37874Y51648*X37812Y51586*X37754Y51532*X37703Y51480*X37659Y51440*X37626Y51408*X37597Y51382*X37452Y51244*X37317Y51113*X37197Y50993*X37084Y50876*X36986Y50767*X36895Y50669*X36749Y50494*X36597Y50301*X36564Y50258*X36542Y50221*X36524Y50195*X36513Y50177*X36509Y50174*X36418Y50002*X36378Y49915*X36342Y49832*X36261Y49595*X36243Y49522*X36225Y49456*X36203Y49344*X36196Y49300*X36189Y49263*X36185Y49235*X36182Y49220*Y49213*X39567*Y50108*X37645*X37674Y50156*X37707Y50203*X37739Y50250*X37772Y50290*X37798Y50323*X37823Y50352*X37838Y50367*X37841Y50374*X37867Y50403*X37939Y50476*X37983Y50519*X38082Y50610*X38180Y50705*X38227Y50749*X38271Y50793*X38315Y50829*X38351Y50861*X38380Y50891*X38406Y50913*X38424Y50931*X38508Y51007*X38584Y51080*X38653Y51145*X38773Y51266*X38824Y51320*X38871Y51367*X38911Y51411*X38948Y51448*X38977Y51480*X39039Y51553*X39050Y51564*X39057Y51575*X39148Y51699*X39228Y51815*X39294Y51924*X39323Y51975*X39348Y52023*X39370Y52063*X39388Y52103*X39421Y52161*X39428Y52187*X39435Y52201*X39443Y52212*Y52216*X39483Y52332*X39516Y52448*X39537Y52558*X39552Y52656*X39559Y52740*X39563Y52776*X39567Y52805*Y52863*X39563Y52973*X39548Y53078*X39527Y53180*X39501Y53275*X39469Y53362*X39432Y53446*X39392Y53519*X39352Y53588*X39312Y53650*X39272Y53708*X39235Y53752*X39177Y53824*X39137Y53865*X39054Y53937*X38966Y53999*X38871Y54050*X38773Y54098*X38678Y54137*X38580Y54170*X38482Y54196*X38391Y54218*X38304Y54236*X38224Y54247*X38151Y54258*X38089Y54261*X38038Y54265*X37998Y54269*G37*G36*X59059Y54269D2*G1X58247D1*X56063Y51065*Y50224*X58123*Y49213*X59059*Y50224*X59685*Y51069*X59059*Y54269*G37*G36*X47861Y54356D2*G1X47752D1*X47676Y54349*X47534Y54330*X47468Y54320*X47406Y54305*X47348Y54294*X47293Y54280*X47246Y54265*X47202Y54250*X47166Y54236*X47134Y54225*X47079Y54203*X47075Y54200*X46955Y54137*X46806Y54032*X46762Y53996*X46722Y53959*X46627Y53865*X46606Y53839*X46587Y53813*X46569Y53795*X46558Y53781*X46555Y53774*X46551Y53770*X46485Y53661*X46431Y53541*X46384Y53417*X46325Y53249*X46314Y53198*X46300Y53155*X46293Y53115*X46285Y53082*X46278Y53060*X46274Y53042*Y53038*X47162Y52889*X47170Y52947*X47181Y53006*X47195Y53056*X47210Y53104*X47228Y53151*X47246Y53191*X47264Y53228*X47301Y53289*X47315Y53315*X47334Y53337*X47345Y53355*X47359Y53370*X47366Y53380*X47374Y53388*X47406Y53417*X47443Y53446*X47515Y53490*X47588Y53519*X47654Y53541*X47712Y53555*X47737Y53559*X47759*X47774Y53562*X47800*X47891Y53555*X47967Y53537*X48036Y53515*X48094Y53486*X48142Y53457*X48174Y53435*X48196Y53417*X48204Y53409*X48254Y53348*X48291Y53282*X48320Y53217*X48338Y53151*X48353Y53071*Y53049*X48356Y53031*Y53006*X48353Y52951*X48349Y52900*X48338Y52849*X48324Y52805*X48291Y52722*X48254Y52652*X48215Y52598*X48196Y52576*X48182Y52558*X48156Y52532*X48152Y52529*X48149Y52525*X48109Y52492*X48065Y52467*X48018Y52445*X47967Y52423*X47869Y52394*X47770Y52376*X47727Y52369*X47614Y52358*X47548*X47443Y51571*X47534Y51597*X47617Y51615*X47694Y51626*X47759Y51637*X47810Y51641*X47832*X47850Y51644*X47883*X47934Y51641*X48032Y51626*X48076Y51611*X48156Y51575*X48225Y51539*X48284Y51498*X48306Y51480*X48324Y51462*X48353Y51440*X48356Y51433*X48360Y51430*X48397Y51389*X48426Y51342*X48451Y51295*X48473Y51247*X48509Y51153*X48531Y51058*X48542Y51018*X48549Y50942*X48557Y50887*Y50850*X48549Y50712*X48538Y50650*X48524Y50592*X48509Y50537*X48491Y50487*X48455Y50399*X48433Y50363*X48415Y50330*X48397Y50305*X48382Y50279*X48367Y50261*X48356Y50250*X48353Y50243*X48309Y50199*X48229Y50134*X48185Y50108*X48142Y50086*X48102Y50068*X48021Y50043*X47952Y50024*X47923Y50021*X47876Y50013*X47847*X47748Y50021*X47658Y50043*X47578Y50072*X47508Y50108*X47450Y50141*X47428Y50156*X47395Y50181*X47385Y50192*X47377Y50195*X47374Y50199*X47341Y50235*X47308Y50276*X47257Y50367*X47213Y50458*X47184Y50545*X47170Y50585*X47162Y50625*X47152Y50658*X47148Y50691*X47141Y50716*Y50734*X47137Y50745*Y50749*X46202Y50632*X46220Y50516*X46245Y50407*X46274Y50301*X46311Y50206*X46354Y50115*X46398Y50028*X46442Y49952*X46489Y49882*X46576Y49762*X46649Y49678*X46678Y49646*X46704Y49624*X46722Y49606*X46809Y49537*X46900Y49475*X46995Y49424*X47090Y49380*X47184Y49340*X47279Y49307*X47370Y49282*X47541Y49245*X47614Y49235*X47683Y49224*X47825Y49213*X47854*X47985Y49216*X48113Y49235*X48233Y49256*X48345Y49285*X48455Y49322*X48553Y49362*X48644Y49402*X48728Y49446*X48800Y49489*X48870Y49533*X48924Y49569*X48972Y49606*X49008Y49635*X49037Y49660*X49052Y49675*X49059Y49678*X49146Y49770*X49219Y49861*X49285Y49955*X49343Y50054*X49387Y50148*X49426Y50243*X49459Y50334*X49485Y50421*X49507Y50501*X49521Y50574*X49532Y50643*X49539Y50698*X49543Y50745*X49547Y50782*Y50811*X49543Y50894*X49536Y50974*X49507Y51124*X49488Y51193*X49467Y51258*X49441Y51317*X49419Y51371*X49394Y51419*X49368Y51462*X49347Y51502*X49328Y51532*X49314Y51557*X49299Y51575*X49292Y51586*X49288Y51589*X49237Y51648*X49128Y51750*X49070Y51790*X49015Y51830*X48957Y51863*X48899Y51892*X48844Y51917*X48793Y51939*X48746Y51957*X48706Y51975*X48669Y51986*X48637Y51994*X48615Y52001*X48600Y52004*X48597*X48662Y52041*X48724Y52081*X48782Y52121*X48888Y52205*X48935Y52248*X49019Y52336*X49088Y52427*X49146Y52514*X49193Y52602*X49234Y52682*X49263Y52762*X49285Y52834*X49303Y52897*X49314Y52954*X49321Y53002*X49324Y53035*Y53064*X49321Y53151*X49310Y53235*X49292Y53315*X49270Y53391*X49241Y53464*X49212Y53534*X49179Y53599*X49146Y53657*X49113Y53712*X49081Y53759*X49052Y53799*X49022Y53835*X49000Y53865*X48982Y53883*X48972Y53897*X48884Y53981*X48797Y54050*X48702Y54112*X48608Y54163*X48513Y54207*X48418Y54247*X48327Y54276*X48236Y54298*X48152Y54320*X48076Y54330*X48007Y54341*X47945Y54349*X47898Y54352*X47861Y54356*G37*G36*X28981Y54269D2*G1X28195D1*X28161Y54185*X28122Y54101*X28078Y54021*X28031Y53948*X27980Y53876*X27929Y53810*X27830Y53690*X27696Y53555*X27605Y53475*X27590Y53464*X27587Y53461*X27503Y53398*X27423Y53341*X27346Y53289*X27270Y53242*X27201Y53198*X27070Y53129*X27011Y53097*X26957Y53071*X26909Y53049*X26869Y53035*X26833Y53020*X26786Y53002*X26771Y52995*X26767*Y52117*X26898Y52165*X27026Y52216*X27150Y52274*X27266Y52332*X27375Y52390*X27477Y52452*X27572Y52514*X27659Y52572*X27739Y52627*X27809Y52682*X27871Y52729*X27921Y52769*X28009Y52842*X28016Y52849*Y49213*X28981*Y54269*G37*G36*X78060Y54356D2*G1X78034D1*X77885Y54349*X77743Y54330*X77608Y54298*X77481Y54261*X77361Y54214*X77252Y54163*X77153Y54105*X77062Y54050*X76979Y53992*X76909Y53937*X76848Y53883*X76797Y53835*X76757Y53799*X76728Y53766*X76702Y53741*X76655Y53683*X76611Y53617*X76571Y53552*X76535Y53479*X76465Y53330*X76407Y53173*X76360Y53006*X76316Y52842*X76284Y52674*X76258Y52514*X76236Y52361*X76218Y52216*X76214Y52150*X76207Y52085*X76200Y51972*X76196Y51921*Y51841*X76192Y51808*Y51622*X76200Y51502*X76203Y51386*X76225Y51167*X76236Y51065*X76250Y50967*X76287Y50782*X76305Y50698*X76327Y50614*X76345Y50537*X76367Y50465*X76393Y50396*X76436Y50268*X76458Y50210*X76484Y50156*X76545Y50021*X76585Y49948*X76604Y49915*X76637Y49868*X76647Y49846*X76676Y49809*X76680Y49802*X76775Y49700*X76877Y49609*X76979Y49529*X77084Y49460*X77190Y49406*X77295Y49358*X77394Y49318*X77492Y49285*X77583Y49263*X77667Y49245*X77743Y49231*X77809Y49224*X77863Y49216*X77885*X77903Y49213*X77936*X78067Y49216*X78191Y49235*X78307Y49256*X78417Y49285*X78522Y49322*X78617Y49362*X78704Y49402*X78784Y49446*X78857Y49489*X78919Y49533*X78973Y49569*X79017Y49606*X79054Y49635*X79079Y49660*X79101Y49678*X79181Y49770*X79250Y49864*X79312Y49966*X79363Y50068*X79447Y50276*X79476Y50378*X79519Y50567*X79530Y50650*X79541Y50727*X79548Y50793*X79552Y50847*X79556Y50869*Y50920*X79552Y51054*X79537Y51182*X79516Y51298*X79487Y51415*X79454Y51517*X79417Y51615*X79381Y51706*X79341Y51790*X79261Y51924*X79192Y52026*X79163Y52063*X79122Y52110*X79039Y52190*X78955Y52263*X78868Y52325*X78780Y52376*X78693Y52423*X78606Y52459*X78522Y52489*X78442Y52514*X78369Y52532*X78300Y52547*X78238Y52558*X78187Y52565*X78111Y52572*X78085*X77987Y52569*X77892Y52554*X77805Y52532*X77721Y52507*X77641Y52474*X77568Y52438*X77499Y52398*X77437Y52358*X77332Y52278*X77288Y52241*X77255Y52208*X77226Y52183*X77208Y52161*X77193Y52147*X77190Y52143*X77201Y52299*X77215Y52441*X77234Y52572*X77255Y52689*X77277Y52795*X77299Y52885*X77321Y52969*X77343Y53042*X77365Y53104*X77386Y53155*X77404Y53195*X77437Y53257*X77448Y53271*X77452Y53282*X77456Y53286*X77495Y53333*X77539Y53377*X77583Y53413*X77626Y53446*X77710Y53493*X77754Y53515*X77794Y53530*X77830Y53541*X77896Y53555*X77943Y53562*X77972*X78056Y53555*X78129Y53541*X78195Y53519*X78249Y53493*X78289Y53468*X78322Y53446*X78340Y53432*X78398Y53366*X78438Y53300*X78467Y53231*X78493Y53162*X78511Y53100*X78515Y53071*X78522Y53049*X78529Y53013*Y53002*X79465Y53104*X79443Y53213*X79414Y53319*X79381Y53417*X79345Y53504*X79305Y53588*X79265Y53664*X79224Y53734*X79184Y53795*X79145Y53850*X79104Y53897*X79072Y53941*X79043Y53974*X78999Y54017*X78984Y54028*X78981Y54032*X78908Y54090*X78832Y54137*X78755Y54181*X78675Y54218*X78595Y54250*X78518Y54276*X78442Y54298*X78365Y54316*X78300Y54330*X78180Y54345*X78129Y54352*X78089*X78060Y54356*G37*G36*X69345Y54272D2*G1X66793D1*X66298Y51652*X67077Y51539*X67139Y51604*X67204Y51659*X67270Y51709*X67332Y51750*X67397Y51786*X67459Y51815*X67517Y51841*X67576Y51859*X67626Y51877*X67674Y51888*X67717Y51895*X67754Y51899*X67805Y51906*X67823*X67885Y51903*X67943Y51895*X67994Y51884*X68049Y51870*X68140Y51834*X68216Y51790*X68249Y51768*X68278Y51746*X68304Y51728*X68326Y51709*X68362Y51673*X68398Y51626*X68431Y51575*X68460Y51524*X68485Y51466*X68504Y51408*X68522Y51349*X68547Y51237*X68562Y51135*X68569Y51051*X68573Y51018*Y50974*X68566Y50800*X68555Y50720*X68526Y50581*X68508Y50519*X68485Y50465*X68467Y50414*X68449Y50370*X68427Y50334*X68395Y50276*X68380Y50254*X68373Y50239*X68365Y50232*X68362Y50228*X68322Y50185*X68282Y50148*X68238Y50115*X68195Y50086*X68151Y50064*X68111Y50043*X68031Y50013*X67958Y49999*X67929Y49992*X67881Y49984*X67852*X67758Y49992*X67667Y50013*X67587Y50043*X67517Y50079*X67463Y50115*X67437Y50130*X67419Y50145*X67404Y50156*X67394Y50166*X67386Y50170*X67383Y50174*X67346Y50210*X67313Y50250*X67263Y50334*X67219Y50421*X67186Y50505*X67164Y50578*X67157Y50610*X67153Y50636*X67146Y50658*Y50676*X67143Y50687*Y50691*X66182Y50589*X66200Y50472*X66229Y50367*X66261Y50261*X66298Y50166*X66342Y50075*X66385Y49995*X66429Y49919*X66476Y49850*X66520Y49788*X66564Y49737*X66600Y49689*X66666Y49624*X66702Y49587*X66789Y49519*X66880Y49460*X66975Y49413*X67070Y49369*X67164Y49333*X67259Y49304*X67350Y49278*X67437Y49260*X67597Y49231*X67667Y49224*X67812Y49213*X67841*X67921Y49216*X68002Y49220*X68151Y49242*X68293Y49274*X68424Y49318*X68544Y49365*X68657Y49424*X68759Y49482*X68850Y49548*X68930Y49609*X69002Y49668*X69064Y49726*X69111Y49773*X69152Y49817*X69181Y49850*X69195Y49871*X69203Y49879*X69268Y49973*X69323Y50068*X69370Y50163*X69414Y50258*X69450Y50352*X69479Y50443*X69501Y50534*X69523Y50618*X69537Y50694*X69548Y50767*X69556Y50829*X69559Y50884*X69563Y50927*X69567Y50960*Y50989*X69563Y51127*X69548Y51255*X69526Y51378*X69497Y51495*X69465Y51600*X69425Y51702*X69385Y51793*X69345Y51877*X69261Y52015*X69224Y52074*X69159Y52158*X69119Y52205*X69032Y52288*X68944Y52361*X68853Y52423*X68759Y52478*X68668Y52521*X68576Y52561*X68489Y52591*X68406Y52616*X68329Y52634*X68256Y52649*X68195Y52660*X68136Y52667*X68059Y52674*X67969*X67907Y52667*X67783Y52649*X67674Y52623*X67619Y52609*X67572Y52594*X67528Y52576*X67488Y52561*X67456Y52547*X67423Y52536*X67401Y52525*X67372Y52514*X67368Y52511*X67524Y53370*X69345*Y54272*G37*G36*X89525Y54185D2*G1X86223D1*Y53289*X88418*X88295Y53126*X88174Y52958*X88065Y52791*X87959Y52623*X87865Y52456*X87774Y52296*X87694Y52139*X87617Y51994*X87494Y51732*X87468Y51673*X87447Y51622*X87403Y51524*X87374Y51448*X87359Y51419*X87334Y51353*X87330Y51346*Y51342*X87257Y51138*X87195Y50938*X87090Y50552*X87050Y50367*X87013Y50192*X86988Y50024*X86962Y49871*X86944Y49730*X86930Y49602*X86922Y49544*X86919Y49489*X86911Y49395*X86908Y49351*X86904Y49315*Y49260*X86900Y49238*Y49213*X87832*X87836Y49340*X87839Y49467*X87850Y49598*X87880Y49857*X87898Y49984*X87920Y50104*X87938Y50217*X87978Y50421*X87996Y50508*X88022Y50614*X88029Y50639*X88032Y50665*X88036Y50687*X88043Y50701*Y50712*X88047Y50720*Y50723*X88091Y50880*X88138Y51036*X88189Y51185*X88240Y51331*X88349Y51604*X88400Y51728*X88451Y51841*X88502Y51946*X88585Y52124*X88637Y52223*X88651Y52248*X88662Y52274*X88673Y52292*X88680Y52307*X88687Y52317*X88691Y52321*Y52325*X88771Y52463*X88848Y52591*X88924Y52711*X89000Y52824*X89139Y53024*X89204Y53108*X89267Y53187*X89321Y53257*X89372Y53315*X89415Y53366*X89456Y53406*X89507Y53464*X89521Y53479*X89525Y53482*Y54185*G37*G36*X97889Y54359D2*G1X97856D1*X97725Y54356*X97601Y54345*X97485Y54327*X97375Y54301*X97277Y54272*X97182Y54243*X97102Y54210*X97026Y54174*X96960Y54141*X96902Y54105*X96851Y54076*X96811Y54047*X96778Y54021*X96757Y54003*X96742Y53992*X96669Y53919*X96607Y53843*X96556Y53766*X96513Y53690*X96472Y53610*X96440Y53534*X96415Y53457*X96396Y53388*X96378Y53319*X96367Y53257*X96356Y53202*X96349Y53115*X96345Y53085*Y53060*X96352Y52940*X96371Y52827*X96400Y52722*X96429Y52631*X96458Y52558*X96472Y52525*X96498Y52482*X96506Y52463*X96513Y52456*Y52452*X96545Y52401*X96585Y52354*X96669Y52267*X96760Y52194*X96848Y52132*X96891Y52106*X96928Y52085*X96964Y52063*X96993Y52048*X97019Y52037*X97041Y52026*X97052Y52023*X97055Y52019*X96975Y51983*X96902Y51943*X96837Y51903*X96771Y51859*X96717Y51815*X96662Y51772*X96615Y51728*X96574Y51684*X96538Y51648*X96480Y51575*X96458Y51550*X96440Y51524*X96422Y51495*X96418Y51491*X96382Y51426*X96352Y51360*X96302Y51229*X96265Y51102*X96243Y50985*X96229Y50887*X96222Y50807*X96218Y50778*Y50738*X96225Y50603*X96240Y50476*X96269Y50356*X96302Y50243*X96342Y50141*X96389Y50046*X96436Y49959*X96487Y49879*X96538Y49809*X96585Y49748*X96633Y49693*X96673Y49650*X96706Y49617*X96735Y49591*X96749Y49577*X96757Y49573*X96844Y49511*X96935Y49453*X97030Y49406*X97128Y49365*X97222Y49329*X97317Y49300*X97412Y49278*X97499Y49256*X97583Y49242*X97659Y49231*X97725Y49224*X97787Y49220*X97871Y49213*X97900*X98034Y49216*X98161Y49231*X98282Y49253*X98395Y49282*X98500Y49315*X98598Y49351*X98689Y49387*X98769Y49431*X98904Y49508*X98959Y49544*X99002Y49577*X99061Y49628*X99079Y49642*X99163Y49730*X99232Y49821*X99290Y49911*X99341Y50006*X99385Y50104*X99421Y50195*X99450Y50290*X99476Y50378*X99494Y50461*X99508Y50537*X99523Y50665*X99530Y50752*Y50782*X99527Y50858*X99519Y50934*X99498Y51076*X99461Y51204*X99443Y51258*X99421Y51313*X99381Y51400*X99363Y51437*X99345Y51466*X99334Y51491*X99315Y51521*X99312Y51524*X99268Y51582*X99174Y51691*X99119Y51739*X99068Y51782*X98962Y51859*X98911Y51892*X98864Y51921*X98821Y51946*X98780Y51968*X98693Y52012*X98678Y52015*X98675Y52019*X98791Y52077*X98893Y52143*X98937Y52179*X98981Y52212*X99017Y52248*X99054Y52281*X99083Y52310*X99108Y52339*X99134Y52365*X99166Y52409*X99177Y52423*X99217Y52485*X99247Y52539*X99272Y52594*X99294Y52649*X99326Y52751*X99348Y52849*X99356Y52893*X99359Y52933*X99370Y53027*Y53060*X99367Y53162*X99352Y53260*X99334Y53355*X99308Y53442*X99279Y53522*X99243Y53599*X99206Y53672*X99170Y53734*X99134Y53792*X99097Y53843*X99064Y53886*X99006Y53952*X98970Y53988*X98893Y54054*X98809Y54112*X98719Y54159*X98628Y54203*X98537Y54239*X98442Y54269*X98351Y54294*X98263Y54312*X98103Y54341*X98034Y54349*X97976Y54352*X97889Y54359*G37*G36*X11650Y93711D2*G1X10635D1*Y88674*X11650*Y93711*G37*G36*X37035Y93711D2*G1X35954D1*X34000Y88674*X35077*X35492Y89817*X37509*X37946Y88674*X39052*X37035Y93711*G37*G36*X44461Y93711D2*G1X43380D1*X41425Y88674*X42503*X42918Y89817*X44934*X45371Y88674*X46478*X44461Y93711*G37*G36*X24976Y93730D2*G1X24867D1*X24791Y93722*X24648Y93704*X24583Y93693*X24521Y93679*X24463Y93668*X24408Y93653*X24361Y93639*X24317Y93624*X24281Y93609*X24248Y93598*X24223Y93588*X24205Y93580*X24194Y93577*X24190Y93573*X24070Y93511*X23921Y93406*X23877Y93369*X23837Y93333*X23742Y93238*X23721Y93213*X23702Y93187*X23684Y93169*X23673Y93154*X23669Y93147*X23666Y93144*X23600Y93034*X23546Y92914*X23498Y92791*X23440Y92623*X23429Y92572*X23415Y92528*X23408Y92489*X23400Y92456*X23393Y92434*X23389Y92416*Y92412*X24277Y92263*X24285Y92321*X24296Y92379*X24310Y92430*X24325Y92478*X24343Y92525*X24361Y92565*X24379Y92601*X24397Y92634*X24416Y92663*X24430Y92689*X24448Y92711*X24459Y92729*X24474Y92743*X24481Y92754*X24521Y92791*X24558Y92820*X24630Y92863*X24703Y92893*X24769Y92914*X24827Y92929*X24852Y92933*X24874*X24889Y92936*X24914*X25005Y92929*X25082Y92911*X25151Y92889*X25209Y92860*X25257Y92831*X25289Y92809*X25311Y92791*X25319Y92783*X25369Y92721*X25406Y92656*X25435Y92590*X25453Y92525*X25468Y92445*Y92423*X25471Y92405*Y92379*X25468Y92325*X25464Y92274*X25453Y92223*X25439Y92179*X25406Y92095*X25369Y92026*X25329Y91972*X25297Y91932*X25264Y91899*X25224Y91866*X25180Y91841*X25133Y91819*X25082Y91797*X24984Y91768*X24842Y91742*X24798Y91739*X24729Y91731*X24663*X24558Y90945*X24648Y90971*X24732Y90989*X24809Y91000*X24874Y91011*X24925Y91014*X24947*X24965Y91018*X24998*X25049Y91014*X25147Y91000*X25191Y90985*X25271Y90949*X25340Y90912*X25398Y90872*X25420Y90854*X25439Y90836*X25457Y90821*X25468Y90814*X25471Y90807*X25511Y90763*X25541Y90716*X25566Y90669*X25588Y90621*X25624Y90526*X25646Y90432*X25657Y90392*X25664Y90315*X25671Y90261*Y90224*X25668Y90155*X25664Y90086*X25653Y90024*X25639Y89966*X25624Y89911*X25606Y89860*X25570Y89773*X25548Y89737*X25530Y89704*X25511Y89678*X25497Y89653*X25482Y89635*X25471Y89624*X25468Y89617*X25424Y89573*X25344Y89507*X25300Y89482*X25257Y89460*X25217Y89442*X25136Y89416*X25067Y89398*X25038Y89395*X24991Y89387*X24962*X24863Y89395*X24772Y89416*X24692Y89445*X24623Y89482*X24565Y89515*X24543Y89529*X24525Y89544*X24510Y89555*X24499Y89565*X24492Y89569*X24489Y89573*X24456Y89609*X24423Y89649*X24372Y89740*X24328Y89831*X24299Y89919*X24285Y89959*X24277Y89998*X24267Y90032*X24263Y90064*X24256Y90090*Y90108*X24252Y90119*Y90122*X23317Y90006*X23335Y89889*X23360Y89780*X23389Y89675*X23426Y89580*X23469Y89489*X23513Y89402*X23557Y89325*X23604Y89256*X23648Y89194*X23691Y89136*X23764Y89052*X23793Y89020*X23819Y88998*X23833Y88983*X23924Y88910*X24015Y88848*X24110Y88798*X24205Y88754*X24299Y88714*X24394Y88681*X24485Y88656*X24656Y88619*X24798Y88597*X24856Y88594*X24904Y88590*X24940Y88586*X24969*X25100Y88590*X25228Y88608*X25348Y88630*X25460Y88659*X25570Y88696*X25668Y88735*X25759Y88776*X25843Y88819*X25915Y88863*X25985Y88907*X26039Y88943*X26123Y89009*X26152Y89034*X26167Y89048*X26174Y89052*X26261Y89143*X26334Y89234*X26400Y89329*X26458Y89427*X26501Y89522*X26541Y89617*X26574Y89708*X26600Y89795*X26622Y89875*X26636Y89948*X26647Y90017*X26654Y90072*X26661Y90155*Y90184*X26658Y90268*X26650Y90348*X26622Y90497*X26603Y90567*X26582Y90632*X26556Y90690*X26534Y90745*X26509Y90792*X26483Y90836*X26461Y90876*X26443Y90905*X26429Y90930*X26414Y90949*X26407Y90959*X26352Y91022*X26243Y91123*X26185Y91163*X26130Y91204*X26072Y91236*X26014Y91265*X25959Y91291*X25908Y91313*X25861Y91331*X25821Y91349*X25784Y91360*X25752Y91367*X25730Y91374*X25715Y91378*X25711*X25777Y91415*X25839Y91455*X25897Y91495*X26003Y91578*X26050Y91622*X26134Y91709*X26203Y91800*X26261Y91888*X26309Y91975*X26348Y92055*X26378Y92135*X26418Y92270*X26429Y92328*X26436Y92376*X26439Y92408*Y92437*X26436Y92525*X26425Y92609*X26407Y92689*X26385Y92765*X26356Y92838*X26327Y92907*X26294Y92972*X26261Y93031*X26228Y93085*X26196Y93133*X26167Y93173*X26137Y93209*X26115Y93238*X26097Y93256*X26083Y93275*X25999Y93355*X25912Y93424*X25817Y93486*X25722Y93537*X25628Y93580*X25533Y93621*X25442Y93650*X25351Y93671*X25267Y93693*X25191Y93704*X25122Y93715*X25060Y93722*X25013Y93726*X24976Y93730*G37*G36*X22490Y93711D2*G1X21474D1*Y90814*X21471Y90716*Y90621*X21464Y90458*X21453Y90268*X21445Y90221*X21442Y90177*X21435Y90115*X21431Y90093*Y90075*X21427Y90068*Y90064*X21416Y90017*X21402Y89973*X21369Y89889*X21325Y89817*X21278Y89751*X21234Y89700*X21198Y89664*X21184Y89649*X21172Y89638*X21165Y89635*X21161Y89631*X21118Y89602*X21071Y89573*X20969Y89529*X20859Y89500*X20754Y89478*X20703Y89471*X20659Y89467*X20615Y89460*X20583*X20550Y89456*X20510*X20434Y89460*X20357Y89463*X20226Y89485*X20164Y89500*X20109Y89515*X20059Y89533*X20015Y89551*X19971Y89565*X19939Y89584*X19906Y89598*X19862Y89624*X19848Y89635*X19840Y89638*X19837Y89642*X19793Y89678*X19753Y89719*X19717Y89758*X19684Y89798*X19633Y89878*X19589Y89959*X19560Y90028*X19549Y90061*X19542Y90086*X19534Y90108*X19531Y90122*X19527Y90134*Y90137*X19520Y90177*X19516Y90228*X19509Y90286*X19505Y90352*X19498Y90490*X19495Y90632*Y90767*X19491Y90825*Y93711*X18475*Y90869*X18479Y90723*X18486Y90588*X18490Y90465*X18497Y90352*X18508Y90246*X18515Y90152*X18526Y90068*X18541Y89926*X18552Y89871*X18559Y89824*X18566Y89791*X18570Y89766*X18574Y89748*Y89744*X18606Y89635*X18646Y89533*X18694Y89438*X18741Y89354*X18785Y89282*X18806Y89252*X18824Y89231*X18835Y89209*X18847Y89194*X18858Y89183*X18945Y89089*X19043Y89005*X19141Y88928*X19236Y88867*X19280Y88841*X19320Y88816*X19356Y88798*X19385Y88779*X19443Y88754*X19447Y88750*X19520Y88721*X19600Y88696*X19687Y88674*X19775Y88656*X19957Y88626*X20048Y88615*X20219Y88601*X20295Y88594*X20364Y88590*X20422*X20474Y88586*X20543*X20758Y88594*X20852Y88601*X20947Y88612*X21111Y88634*X21184Y88648*X21252Y88663*X21311Y88677*X21362Y88692*X21406Y88703*X21445Y88714*X21493Y88732*X21508Y88739*X21511*X21580Y88768*X21704Y88834*X21758Y88867*X21813Y88903*X21860Y88936*X21904Y88969*X21980Y89030*X22013Y89059*X22039Y89085*X22061Y89103*X22079Y89121*X22090Y89136*X22101Y89147*X22177Y89249*X22243Y89354*X22294Y89460*X22356Y89606*X22381Y89685*X22388Y89719*X22399Y89744*X22406Y89777*Y89780*X22421Y89857*X22435Y89944*X22447Y90039*X22454Y90137*X22465Y90243*X22468Y90352*X22476Y90458*X22479Y90563*X22487Y90756*Y90839*X22490Y90916*Y93711*G37*G36*X10103Y90982D2*G1X8207D1*Y90017*X10103*Y90982*G37*G36*X29257Y90982D2*G1X27360D1*Y90017*X29257*Y90982*G37*G36*X41374Y90982D2*G1X39478D1*Y90017*X41374*Y90982*G37*G36*X17467Y93711D2*G1X15938D1*X15039Y90272*X14129Y93711*X12608*Y88674*X13550*Y92638*X14544Y88674*X15523*X16521Y92638*X16524Y88674*X17467*Y93711*G37*G36*X7628Y92325D2*G1X6500D1*X5815Y91320*X5171Y92325*X3992*X5251Y90552*X3937Y88674*X5065*X5815Y89802*X6558Y88674*X7741*X6390Y90592*X7628Y92325*G37*G36*X51035Y93711D2*G1X49856D1*X48855Y92201*X47857Y93711*X46667*X48250Y91295*X46507Y88674*X47726*X48847Y90377*X49965Y88674*X51188*X49452Y91298*X51035Y93711*G37*G36*X31645Y93795D2*G1X31579D1*X31474Y93791*X31372Y93788*X31273Y93781*X31179Y93766*X31091Y93755*X31011Y93741*X30935Y93722*X30866Y93708*X30804Y93690*X30749Y93675*X30702Y93657*X30662Y93646*X30633Y93635*X30608Y93624*X30593Y93621*X30589Y93617*X30513Y93584*X30443Y93544*X30378Y93504*X30316Y93464*X30211Y93380*X30163Y93337*X30120Y93297*X30083Y93256*X30050Y93224*X30021Y93191*X30000Y93162*X29981Y93140*X29971Y93122*X29963Y93111*X29959Y93107*X29923Y93045*X29890Y92980*X29861Y92918*X29835Y92852*X29814Y92791*X29796Y92732*X29785Y92674*X29770Y92623*X29756Y92525*X29745Y92423*Y92387*X29748Y92277*X29763Y92172*X29788Y92070*X29817Y91975*X29850Y91888*X29890Y91804*X29934Y91728*X30018Y91593*X30101Y91487*X30134Y91447*X30189Y91393*X30207Y91374*X30276Y91320*X30352Y91269*X30436Y91218*X30527Y91171*X30618Y91127*X30717Y91087*X30906Y91014*X30993Y90985*X31153Y90930*X31277Y90898*X31299Y90891*X31317Y90887*X31332Y90880*X31343*X31350Y90876*X31354*X31467Y90847*X31572Y90821*X31667Y90800*X31750Y90778*X31892Y90737*X31950Y90723*X32002Y90708*X32041Y90698*X32078Y90687*X32107Y90676*X32161Y90661*X32165Y90658*X32169*X32260Y90621*X32336Y90585*X32402Y90545*X32453Y90512*X32489Y90479*X32533Y90443*X32537Y90435*X32573Y90388*X32598Y90337*X32617Y90286*X32639Y90195*X32642Y90163*Y90134*X32639Y90082*X32631Y90032*X32620Y89988*X32602Y89941*X32562Y89860*X32519Y89787*X32493Y89758*X32471Y89729*X32449Y89708*X32431Y89685*X32413Y89671*X32391Y89649*X32344Y89613*X32289Y89580*X32172Y89529*X32049Y89493*X31929Y89467*X31819Y89453*X31699Y89442*X31652*X31568Y89445*X31488Y89453*X31412Y89463*X31339Y89478*X31273Y89497*X31215Y89515*X31157Y89536*X31062Y89580*X31026Y89602*X30989Y89620*X30942Y89653*X30928Y89664*X30917Y89671*X30866Y89722*X30819Y89773*X30778Y89828*X30742Y89886*X30709Y89948*X30680Y90009*X30629Y90130*X30611Y90184*X30597Y90235*X30582Y90283*X30571Y90326*X30564Y90359*X30556Y90385*X30553Y90399*Y90406*X29563Y90312*X29585Y90159*X29617Y90013*X29654Y89878*X29701Y89751*X29748Y89638*X29799Y89533*X29850Y89435*X29956Y89274*X30003Y89209*X30050Y89150*X30091Y89107*X30123Y89071*X30149Y89045*X30163Y89027*X30171Y89023*X30272Y88947*X30382Y88878*X30498Y88819*X30618Y88768*X30738Y88725*X30862Y88692*X30982Y88663*X31099Y88637*X31208Y88619*X31310Y88605*X31485Y88590*X31517Y88586*X31550*X31576Y88583*X31641*X31761Y88586*X31878Y88590*X32089Y88612*X32184Y88626*X32274Y88641*X32358Y88656*X32435Y88674*X32500Y88692*X32562Y88706*X32613Y88721*X32689Y88747*X32715Y88758*X32730Y88761*X32733Y88765*X32813Y88801*X32889Y88841*X32959Y88885*X33086Y88976*X33141Y89023*X33192Y89071*X33239Y89114*X33315Y89198*X33370Y89263*X33410Y89322*X33414Y89325*X33458Y89398*X33494Y89467*X33526Y89540*X33556Y89613*X33599Y89748*X33628Y89875*X33643Y89980*X33650Y90024*X33654Y90064*X33658Y90093*Y90137*X33650Y90308*X33639Y90388*X33625Y90465*X33610Y90534*X33592Y90599*X33574Y90661*X33556Y90716*X33537Y90767*X33519Y90810*X33501Y90847*X33487Y90880*X33461Y90923*X33458Y90934*X33454Y90938*X33374Y91054*X33283Y91156*X33235Y91204*X33188Y91243*X33145Y91284*X33101Y91316*X33057Y91349*X33021Y91374*X32984Y91397*X32955Y91418*X32911Y91444*X32900Y91447*X32897Y91451*X32828Y91487*X32748Y91520*X32664Y91557*X32576Y91589*X32395Y91651*X32304Y91677*X32216Y91706*X32132Y91728*X32056Y91750*X31983Y91768*X31921Y91786*X31871Y91797*X31834Y91808*X31819Y91811*X31809*X31805Y91815*X31801*X31670Y91848*X31441Y91910*X31255Y91972*X31113Y92026*X30968Y92092*X30909Y92124*X30877Y92146*X30869Y92154*X30866*X30815Y92204*X30778Y92256*X30753Y92306*X30735Y92354*X30724Y92397*X30717Y92452*Y92459*X30720Y92496*X30724Y92528*X30742Y92590*X30767Y92641*X30797Y92685*X30826Y92721*X30869Y92765*X30877Y92769*X30928Y92802*X30979Y92831*X31033Y92856*X31091Y92878*X31208Y92911*X31317Y92933*X31372Y92940*X31419Y92943*X31528Y92954*X31648*X31725Y92947*X31790Y92940*X31852Y92929*X31965Y92900*X32056Y92871*X32093Y92852*X32125Y92838*X32154Y92823*X32176Y92809*X32195Y92798*X32205Y92791*X32213Y92787*X32216Y92783*X32256Y92750*X32289Y92711*X32351Y92623*X32398Y92532*X32438Y92441*X32453Y92397*X32475Y92321*X32482Y92288*X32489Y92263*X32497Y92230*Y92226*X33512Y92270*X33501Y92397*X33483Y92518*X33458Y92630*X33421Y92736*X33385Y92834*X33341Y92925*X33297Y93009*X33250Y93082*X33203Y93151*X33159Y93209*X33119Y93260*X33083Y93300*X33050Y93333*X33028Y93358*X33013Y93373*X33006Y93376*X32911Y93449*X32809Y93515*X32697Y93569*X32584Y93621*X32464Y93661*X32344Y93693*X32227Y93722*X32114Y93744*X31907Y93773*X31816Y93784*X31736Y93788*X31699Y93791*X31670*X31645Y93795*G37*G36*X15640Y85852D2*G1X15607D1*X15472Y85845*X15348Y85830*X15228Y85805*X15119Y85772*X15017Y85732*X14922Y85688*X14839Y85641*X14762Y85594*X14693Y85546*X14632Y85499*X14580Y85455*X14508Y85382*X14468Y85343*X14464Y85335*X14420Y85273*X14376Y85208*X14340Y85139*X14300Y85066*X14235Y84913*X14180Y84753*X14133Y84582*X14093Y84411*X14060Y84243*X14034Y84076*X14013Y83915*X13998Y83770*X13995Y83701*X13987Y83635*X13984Y83573*X13976Y83468*Y83380*X13972Y83348*Y83151*X13976Y83024*X13991Y82784*X14013Y82561*X14027Y82459*X14042Y82361*X14078Y82176*X14115Y82012*X14133Y81935*X14154Y81866*X14176Y81797*X14198Y81735*X14217Y81677*X14238Y81622*X14260Y81575*X14278Y81528*X14297Y81488*X14319Y81448*X14333Y81415*X14351Y81382*X14391Y81317*X14402Y81298*X14417Y81280*X14420Y81273*X14508Y81174*X14602Y81087*X14697Y81011*X14795Y80945*X14897Y80891*X14995Y80847*X15090Y80811*X15185Y80778*X15269Y80756*X15352Y80738*X15487Y80716*X15574Y80709*X15607*X15741Y80716*X15865Y80731*X15985Y80756*X16095Y80789*X16197Y80829*X16291Y80872*X16375Y80916*X16451Y80967*X16521Y81015*X16582Y81058*X16634Y81102*X16673Y81142*X16732Y81200*X16746Y81215*X16750Y81222*X16794Y81284*X16837Y81349*X16877Y81419*X16914Y81491*X16979Y81644*X17037Y81808*X17085Y81976*X17125Y82147*X17158Y82318*X17183Y82485*X17205Y82645*X17219Y82795*X17227Y82863*X17230Y82929*X17234Y82987*X17237Y83046*X17241Y83097*Y83144*X17245Y83184*Y83409*X17241Y83537*X17234Y83661*X17212Y83890*X17198Y83999*X17183Y84101*X17169Y84203*X17150Y84298*X17128Y84389*X17110Y84472*X17088Y84556*X17067Y84633*X17045Y84706*X17019Y84774*X16976Y84902*X16950Y84957*X16906Y85059*X16866Y85142*X16845Y85179*X16826Y85208*X16812Y85237*X16797Y85262*X16783Y85280*X16772Y85299*X16761Y85313*X16757Y85321*X16750Y85328*X16670Y85419*X16582Y85502*X16491Y85572*X16397Y85630*X16302Y85681*X16208Y85724*X16113Y85758*X16026Y85787*X15938Y85808*X15789Y85837*X15727Y85845*X15676Y85848*X15640Y85852*G37*G36*X10580Y85852D2*G1X9794D1*X9761Y85768*X9721Y85685*X9677Y85604*X9630Y85532*X9579Y85459*X9528Y85393*X9477Y85332*X9430Y85273*X9295Y85139*X9230Y85080*X9204Y85059*X9189Y85048*X9186Y85044*X9102Y84982*X9022Y84924*X8946Y84873*X8869Y84826*X8800Y84782*X8731Y84745*X8669Y84713*X8611Y84680*X8556Y84654*X8509Y84633*X8403Y84593*X8371Y84578*X8367*Y83701*X8498Y83748*X8625Y83799*X8749Y83857*X8865Y83915*X8975Y83974*X9077Y84036*X9259Y84156*X9339Y84210*X9408Y84265*X9470Y84312*X9521Y84352*X9561Y84385*X9590Y84411*X9608Y84425*X9615Y84432*Y80796*X10580*Y85852*G37*G36*X13194Y81761D2*G1X12229D1*Y80796*X13194*Y81761*G37*G36*X7726Y84447D2*G1X6733D1*X6019Y82525*X5968Y82369*X5954Y82332*X5943Y82299*X5939Y82281*X5935Y82274*X5932Y82259*X5924Y82237*X5913Y82194*X5895Y82143*X5881Y82088*X5863Y82041*X5852Y82001*X5841Y81972*X5837Y81965*Y81961*X5637Y82584*X4949Y84447*X3937*X5408Y80796*X6278*X7726Y84447*G37*
%LPC*%
X0Y0D2*G36*X58123Y52787D2*G1X56966Y51069D1*X58123*Y52787*G37*G36*X77936Y51863D2*G1X77910D1*X77867Y51855*X77838Y51852*X77772Y51834*X77696Y51808*X77659Y51790*X77619Y51768*X77579Y51743*X77539Y51713*X77499Y51681*X77459Y51637*X77456Y51630*X77445Y51619*X77434Y51600*X77419Y51579*X77386Y51517*X77350Y51437*X77332Y51386*X77317Y51335*X77302Y51276*X77281Y51145*X77277Y51073*X77274Y50993*Y50952*X77281Y50880*X77284Y50832*X77292Y50782*X77299Y50727*X77324Y50610*X77343Y50548*X77365Y50490*X77390Y50428*X77419Y50374*X77452Y50319*X77488Y50268*X77492Y50265*X77510Y50247*X77524Y50228*X77547Y50210*X77597Y50166*X77630Y50141*X77703Y50093*X77787Y50054*X77834Y50035*X77882Y50024*X77932Y50017*X77983Y50013*X78009*X78049Y50021*X78078Y50024*X78140Y50039*X78209Y50064*X78245Y50083*X78282Y50101*X78322Y50126*X78358Y50152*X78395Y50185*X78427Y50221*X78431Y50224*X78435Y50232*X78446Y50243*X78456Y50261*X78471Y50283*X78485Y50312*X78500Y50348*X78518Y50385*X78537Y50432*X78566Y50537*X78580Y50600*X78602Y50741*X78606Y50822*X78609Y50916*Y50956*X78598Y51076*X78595Y51131*X78584Y51185*X78562Y51302*X78529Y51422*X78508Y51480*X78482Y51535*X78449Y51586*X78417Y51633*X78413Y51637*X78409Y51644*X78384Y51670*X78340Y51706*X78315Y51728*X78285Y51750*X78216Y51790*X78132Y51826*X78089Y51841*X78038Y51852*X77991Y51859*X77936Y51863*G37*G36*X97871Y51608D2*G1X97838D1*X97783Y51600*X97670Y51579*X97583Y51546*X97539Y51528*X97452Y51477*X97412Y51440*X97375Y51404*X97339Y51360*Y51357*X97332Y51349*X97313Y51317*X97299Y51295*X97284Y51269*X97255Y51204*X97222Y51124*X97193Y51036*X97175Y50938*X97168Y50829*Y50793*X97172Y50767*X97179Y50694*X97193Y50603*X97219Y50505*X97255Y50399*X97277Y50348*X97335Y50254*X97375Y50206*X97383Y50199*X97394Y50188*X97452Y50141*X97481Y50119*X97514Y50101*X97587Y50057*X97674Y50024*X97721Y50010*X97772Y49999*X97827Y49992*X97882Y49988*X97910*X97932Y49992*X97987Y49999*X98056Y50013*X98136Y50039*X98176Y50057*X98220Y50079*X98260Y50104*X98304Y50134*X98344Y50166*X98380Y50203*X98384Y50206*X98387Y50213*X98398Y50224*X98409Y50243*X98427Y50265*X98442Y50294*X98460Y50323*X98478Y50359*X98497Y50403*X98515Y50447*X98533Y50498*X98547Y50556*X98558Y50614*X98569Y50680*X98573Y50749*X98576Y50836*Y50854*X98569Y50909*X98566Y50945*X98558Y50982*X98551Y51025*X98529Y51117*X98493Y51211*X98471Y51258*X98442Y51302*X98413Y51349*X98376Y51389*X98369Y51400*X98340Y51422*X98322Y51440*X98271Y51477*X98238Y51498*X98165Y51539*X98078Y51575*X98031Y51586*X97980Y51597*X97925Y51604*X97871Y51608*G37*G36*X97918Y53595D2*G1X97841D1*X97819Y53592*X97798*X97769Y53588*X97634Y53555*X97561Y53526*X97488Y53482*X97456Y53457*X97415Y53421*X97408Y53409*X97397Y53398*X97372Y53362*X97343Y53311*X97310Y53249*X97284Y53173*X97266Y53089*X97259Y52987*Y52962*X97263Y52944*Y52918*X97266Y52889*X97299Y52754*X97328Y52678*X97368Y52605*X97390Y52572*X97419Y52539*X97423*X97426Y52532*X97437Y52525*X97448Y52514*X97485Y52489*X97535Y52459*X97597Y52430*X97674Y52405*X97758Y52387*X97805Y52383*X97856Y52380*X97882*X97903Y52383*X97925*X97950Y52387*X98016Y52401*X98085Y52419*X98158Y52448*X98231Y52489*X98263Y52511*X98297Y52539*X98304Y52547*X98311Y52558*X98322Y52569*X98351Y52605*X98380Y52660*X98409Y52722*X98438Y52802*X98456Y52893*X98464Y52940*Y53020*X98460Y53038*Y53064*X98456Y53089*X98442Y53151*X98424Y53220*X98395Y53293*X98354Y53366*X98329Y53398*X98300Y53432*Y53435*X98282Y53446*X98271Y53457*X98184Y53515*X98122Y53544*X98049Y53570*X97961Y53588*X97918Y53595*G37*G36*X36482Y92536D2*G1X35802Y90669D1*X37181*X36482Y92536*G37*G36*X43908Y92536D2*G1X43227Y90669D1*X44607*X43908Y92536*G37*G36*X15607Y85051D2*G1X15578D1*X15545Y85044*X15501Y85037*X15454Y85022*X15403Y85004*X15348Y84975*X15294Y84938*X15287Y84935*X15214Y84847*X15181Y84793*X15163Y84760*X15145Y84724*X15126Y84684*X15112Y84636*X15094Y84589*X15079Y84538*Y84534*X15075Y84520*X15072Y84498*X15047Y84374*X15039Y84312*X15032Y84239*X15021Y84159*X15013Y84065*X15003Y83963*X14995Y83850*X14992Y83722*X14984Y83588*X14981Y83439*Y83133*X14984Y83064*Y82980*X14992Y82795*X14995Y82693*X15003Y82591*X15017Y82391*X15028Y82296*X15039Y82208*X15054Y82128*X15068Y82059*Y82056*X15079Y82026*X15094Y81979*X15104Y81950*X15130Y81881*X15163Y81808*X15203Y81735*X15247Y81670*X15269Y81641*X15294Y81619*X15301Y81615*X15319Y81600*X15348Y81586*X15385Y81564*X15432Y81546*X15483Y81528*X15545Y81513*X15607Y81509*X15614*X15636Y81513*X15669Y81517*X15713Y81524*X15760Y81535*X15814Y81557*X15865Y81582*X15920Y81619*X15942Y81641*X16000Y81709*X16051Y81801*X16069Y81837*X16087Y81877*X16102Y81921*X16120Y81968*X16135Y82019*Y82023*X16138Y82037*X16146Y82059*X16149Y82092*X16160Y82132*X16185Y82318*X16197Y82398*X16204Y82489*X16215Y82594*X16222Y82707*X16226Y82831*X16233Y82969*X16237Y83119*Y83421*X16233Y83493*Y83577*X16229Y83664*X16226Y83763*X16222Y83861*X16208Y84065*X16197Y84163*X16189Y84258*X16175Y84349*X16146Y84494*Y84498*X16135Y84527*X16131Y84549*X16120Y84574*X16084Y84672*X16051Y84749*X16011Y84822*X15967Y84887*X15942Y84917*X15916Y84938*X15909Y84942*X15895Y84957*X15829Y84997*X15782Y85015*X15731Y85033*X15669Y85048*X15607Y85051*G37*
%LPD*%
X0Y0D2*D10*G1X5906Y51741D2*X9843D1*X17874Y49772D2*Y53709D1*X15906Y51741D2*X19843D1*X0Y0D2*M02*