G04*
G04 #@! TF.GenerationSoftware,Altium Limited,Altium Designer,25.1.2 (22)*
G04*
G04 Layer_Color=16711935*
%FSLAX44Y44*%
%MOMM*%
G71*
G04*
G04 #@! TF.SameCoordinates,DB710AA7-E77E-4036-8C0A-EA680BC9F52C*
G04*
G04*
G04 #@! TF.FilePolarity,Negative*
G04*
G01*
G75*
%ADD12C,1.1938*%
%ADD13O,1.2032X2.0032*%
%ADD14C,2.0828*%
%ADD34C,0.9906*%
%ADD35R,1.0032X0.5532*%
%ADD36R,0.5532X1.0032*%
%ADD37R,0.9032X0.6032*%
%ADD38R,0.7032X0.8032*%
%ADD39R,0.5532X0.8032*%
%ADD40R,0.8832X0.9832*%
%ADD41R,0.6032X0.9032*%
%ADD42R,0.4132X0.5132*%
D12*
X144200Y217340D02*
D03*
Y237660D02*
D03*
X195000Y227500D02*
D03*
D13*
X125000Y185000D02*
D03*
X150000D02*
D03*
X175000D02*
D03*
D14*
X248600Y110000D02*
D03*
X223200D02*
D03*
X197800D02*
D03*
X172400D02*
D03*
X147000D02*
D03*
X121600D02*
D03*
X96200D02*
D03*
X70800D02*
D03*
X45400D02*
D03*
X20000D02*
D03*
D34*
X156900Y233850D02*
D03*
Y221150D02*
D03*
X169600Y233850D02*
D03*
Y221150D02*
D03*
X182300Y233850D02*
D03*
Y221150D02*
D03*
D35*
X20500Y222500D02*
D03*
Y217500D02*
D03*
Y212500D02*
D03*
Y207500D02*
D03*
Y202500D02*
D03*
Y197500D02*
D03*
Y192500D02*
D03*
Y187500D02*
D03*
Y182500D02*
D03*
Y177500D02*
D03*
Y172500D02*
D03*
Y167500D02*
D03*
Y162500D02*
D03*
Y157500D02*
D03*
Y152500D02*
D03*
Y147500D02*
D03*
X109500Y222500D02*
D03*
Y217500D02*
D03*
Y212500D02*
D03*
Y207500D02*
D03*
Y202500D02*
D03*
Y197500D02*
D03*
Y192500D02*
D03*
Y187500D02*
D03*
Y182500D02*
D03*
Y177500D02*
D03*
Y172500D02*
D03*
Y167500D02*
D03*
Y162500D02*
D03*
Y157500D02*
D03*
Y152500D02*
D03*
Y147500D02*
D03*
D36*
X27500Y140500D02*
D03*
X32500D02*
D03*
X37500D02*
D03*
X42500D02*
D03*
X27500Y229500D02*
D03*
X32500D02*
D03*
X37500D02*
D03*
X42500D02*
D03*
X47500D02*
D03*
X52500D02*
D03*
X57500D02*
D03*
X62500D02*
D03*
X67500D02*
D03*
X72500D02*
D03*
X77500D02*
D03*
X82500D02*
D03*
X87500D02*
D03*
X92500D02*
D03*
X97500D02*
D03*
X102500D02*
D03*
Y140500D02*
D03*
X97500D02*
D03*
X92500D02*
D03*
X87500D02*
D03*
X82500D02*
D03*
X77500D02*
D03*
X72500D02*
D03*
X67500D02*
D03*
X62500D02*
D03*
X57500D02*
D03*
X52500D02*
D03*
X47500D02*
D03*
D37*
X147500Y152000D02*
D03*
Y143000D02*
D03*
X10000Y195500D02*
D03*
Y204500D02*
D03*
Y179500D02*
D03*
Y170500D02*
D03*
X120000Y214500D02*
D03*
Y205500D02*
D03*
X130000Y214500D02*
D03*
Y205500D02*
D03*
Y223000D02*
D03*
Y232000D02*
D03*
X137500Y180500D02*
D03*
Y189500D02*
D03*
D38*
X161500Y150000D02*
D03*
Y135000D02*
D03*
X198500Y150000D02*
D03*
Y135000D02*
D03*
D39*
X167500Y150000D02*
D03*
X182500Y135000D02*
D03*
X192500Y150000D02*
D03*
X172500D02*
D03*
X177500D02*
D03*
X182500D02*
D03*
X187500D02*
D03*
X172500Y135000D02*
D03*
X177500D02*
D03*
X167500D02*
D03*
X187500D02*
D03*
X192500D02*
D03*
D40*
X123350Y156150D02*
D03*
X136650D02*
D03*
Y138850D02*
D03*
X123350D02*
D03*
D41*
X167000Y200000D02*
D03*
X158000D02*
D03*
X53000Y240000D02*
D03*
X62000D02*
D03*
X65500Y130000D02*
D03*
X74500D02*
D03*
X129500Y167500D02*
D03*
X120500D02*
D03*
X158000Y170000D02*
D03*
X167000D02*
D03*
X70500Y240000D02*
D03*
X79500D02*
D03*
D42*
X159250Y180450D02*
D03*
X165750D02*
D03*
Y189550D02*
D03*
X159250D02*
D03*
M02*
