G04*
G04 #@! TF.GenerationSoftware,Altium Limited,Altium Designer,25.1.2 (22)*
G04*
G04 Layer_Physical_Order=4*
G04 Layer_Color=16711680*
%FSLAX44Y44*%
%MOMM*%
G71*
G04*
G04 #@! TF.SameCoordinates,DB710AA7-E77E-4036-8C0A-EA680BC9F52C*
G04*
G04*
G04 #@! TF.FilePolarity,Positive*
G04*
G01*
G75*
%ADD15C,0.1500*%
%ADD16C,0.9906*%
%ADD17O,1.0000X1.8000*%
%ADD18C,1.8796*%
%ADD19C,0.4000*%
%ADD25C,0.7874*%
%ADD26R,0.8000X0.3500*%
%ADD27R,0.3500X0.8000*%
%ADD28R,0.7000X0.4000*%
%ADD29R,0.5000X0.6000*%
%ADD30R,0.3500X0.6000*%
%ADD31R,0.6800X0.7800*%
%ADD32R,0.4000X0.7000*%
%ADD33R,0.2100X0.3100*%
D15*
X129500Y167500D02*
X135000D01*
X170450Y189550D02*
X175000Y185000D01*
X165750Y189550D02*
X170450D01*
X152500Y200000D02*
X152500Y200000D01*
X158000D01*
X167000Y174500D02*
X175000Y182500D01*
X167000Y170000D02*
Y174500D01*
X150000Y185000D02*
X154550Y180450D01*
X159250D01*
X158000Y194500D02*
X159250Y193250D01*
X158000Y194500D02*
Y200000D01*
X159250Y189550D02*
Y193250D01*
X165750Y193250D02*
X167000Y194500D01*
Y200000D01*
X165750Y189550D02*
Y193250D01*
X158000Y175500D02*
X159250Y176750D01*
X158000Y170000D02*
Y175500D01*
X159250Y176750D02*
Y180450D01*
X120000Y227500D02*
X150550D01*
X123350Y156150D02*
X136650D01*
X102500Y162500D02*
X109500D01*
X102500Y182500D02*
X102500Y182500D01*
X109500D01*
X138850Y138850D02*
X143000Y143000D01*
X147500D01*
X143000Y152000D02*
X147500D01*
X138850Y156150D02*
X143000Y152000D01*
X136650Y156150D02*
X138850D01*
X136650Y138850D02*
X138850D01*
X123350Y151650D02*
X127500Y147500D01*
X123350Y151650D02*
Y156150D01*
X136650Y138850D02*
Y147500D01*
X109500Y157500D02*
X109500Y157500D01*
X162500Y151000D02*
Y157500D01*
X100000D02*
X109500D01*
X137500Y189500D02*
Y195000D01*
X159250Y188250D02*
Y189550D01*
Y180450D02*
X165750D01*
X125000Y185000D02*
X129500Y180500D01*
X137500D01*
X130000Y232000D02*
Y237500D01*
Y214500D02*
Y223000D01*
X115000Y152500D02*
X123350Y144150D01*
Y138850D02*
Y144150D01*
X109500Y152500D02*
X115000D01*
X120000Y205500D02*
X130000D01*
X120000Y214500D02*
X130000D01*
X112725Y212500D02*
X114725Y214500D01*
X120000D01*
X109500Y212500D02*
X112725D01*
X112725Y207500D02*
X114725Y205500D01*
X120000D01*
X109500Y207500D02*
X112725D01*
X115000Y222500D02*
X120000Y227500D01*
X109500Y222500D02*
X115000D01*
X120129Y167871D02*
Y172371D01*
Y167871D02*
X120500Y167500D01*
X109500Y177500D02*
X115000D01*
X120129Y172371D01*
X109500Y182500D02*
X112725D01*
X167500Y150000D02*
Y160000D01*
X177500Y150000D02*
Y165000D01*
X172500Y150000D02*
Y162500D01*
X172500Y150000D02*
X172500Y150000D01*
X94598Y132098D02*
Y132775D01*
X92500Y134873D02*
Y140500D01*
Y134873D02*
X94598Y132775D01*
X67500Y136500D02*
Y140500D01*
Y147500D01*
X72500Y136500D02*
Y140500D01*
Y150000D01*
X95000Y132500D02*
X97500Y135000D01*
Y140500D01*
X70800Y110000D02*
X85800Y125000D01*
X100000D01*
X106000Y131000D01*
X153000D01*
X197500Y151000D02*
Y165000D01*
X192500Y150000D02*
Y162500D01*
X187500Y150000D02*
Y160000D01*
X187500Y150000D02*
X187500Y150000D01*
X182500Y150000D02*
Y157500D01*
X109500Y207500D02*
X109500Y207500D01*
X102500Y207500D02*
X109500D01*
X87500Y212500D02*
Y229500D01*
X87500Y229500D02*
X87500Y229500D01*
X72500Y212500D02*
Y229500D01*
X100000Y167500D02*
X109500D01*
X109500Y167500D01*
X102500Y172500D02*
X109500D01*
X42500Y220000D02*
Y229500D01*
X47500Y222500D02*
Y229500D01*
X47500Y229500D02*
X47500Y229500D01*
X52500Y220000D02*
Y229500D01*
X72500D02*
X72500Y229500D01*
X150550Y227500D02*
X156900Y233850D01*
X30000Y172500D02*
X30000Y172500D01*
X20500Y172500D02*
X30000D01*
X100000Y177500D02*
X109500D01*
X109500Y177500D01*
X62500Y229500D02*
X62500Y229500D01*
Y220000D02*
Y229500D01*
X30000Y202500D02*
X30000Y202500D01*
X20500Y202500D02*
X30000D01*
X27500Y177500D02*
X27500Y177500D01*
X20500Y177500D02*
X27500D01*
X27500Y197500D02*
X27500Y197500D01*
X20500Y197500D02*
X27500D01*
X79500Y240000D02*
X85000D01*
X57500Y222500D02*
X57500Y222500D01*
X57500Y222500D02*
Y229500D01*
X67500Y222500D02*
Y229500D01*
X97500Y237500D02*
X97500Y237500D01*
X97500Y229500D02*
Y237500D01*
X102500Y235000D02*
X105000Y237500D01*
X102500Y229500D02*
Y235000D01*
X176000Y227550D02*
X182300Y233850D01*
X163000Y227250D02*
X169600Y233850D01*
X156900Y221150D02*
X163000Y215050D01*
X169600Y221150D02*
X176000Y214750D01*
X182300Y221150D02*
X188000Y215450D01*
X67500Y234500D02*
X70500Y237500D01*
Y240000D01*
X67500Y229500D02*
Y234500D01*
X53000Y239000D02*
X57500Y234500D01*
Y229500D02*
Y234500D01*
X62500Y229500D02*
Y239500D01*
X13500Y204500D02*
X15500Y202500D01*
X10000Y204500D02*
X13500D01*
X13500Y195500D02*
X14750Y196750D01*
X10000Y195500D02*
X13500D01*
X14750Y196750D02*
X15500Y197500D01*
X14000Y196000D02*
X14750Y196750D01*
X15500Y197500D02*
X20500D01*
X15500Y202500D02*
X20500D01*
X13500Y170500D02*
X15500Y172500D01*
X10000Y170500D02*
X13500D01*
X13500Y179500D02*
X15500Y177500D01*
X10000Y179500D02*
X13500D01*
X15500Y172500D02*
X20500D01*
X15500Y177500D02*
X20500D01*
X65500Y134500D02*
X67500Y136500D01*
X65500Y130000D02*
Y134500D01*
X72500Y136500D02*
X74500Y134500D01*
Y130000D02*
Y134500D01*
X157000Y135000D02*
X161500D01*
X153000Y131000D02*
X157000Y135000D01*
X198000Y125000D02*
X208200D01*
X192500Y130500D02*
X198000Y125000D01*
X192500Y130500D02*
Y135000D01*
X187500Y120300D02*
Y135000D01*
X182500Y120100D02*
Y135000D01*
X159000Y122000D02*
X169000D01*
X177500Y130500D01*
Y135000D01*
X136600Y125000D02*
X167000D01*
X172500Y130500D01*
Y135000D01*
X114200Y128000D02*
X165000D01*
X167500Y130500D01*
Y135000D01*
X223600D02*
X248600Y110000D01*
X198500Y135000D02*
X223600D01*
X96200Y110000D02*
X114200Y128000D01*
X121600Y110000D02*
X136600Y125000D01*
X147000Y110000D02*
X159000Y122000D01*
X208200Y125000D02*
X223200Y110000D01*
X172400D02*
X182500Y120100D01*
X187500Y120300D02*
X197800Y110000D01*
D16*
X144200Y217340D02*
D03*
Y237660D02*
D03*
X195000Y227500D02*
D03*
D17*
X125000Y185000D02*
D03*
X150000D02*
D03*
X175000D02*
D03*
D18*
X248600Y110000D02*
D03*
X223200D02*
D03*
X197800D02*
D03*
X172400D02*
D03*
X147000D02*
D03*
X121600D02*
D03*
X96200D02*
D03*
X70800D02*
D03*
X45400D02*
D03*
X20000D02*
D03*
D19*
X135000Y167500D02*
D03*
X152500Y200000D02*
D03*
X102500Y162500D02*
D03*
X102500Y182500D02*
D03*
X127500Y147500D02*
D03*
X136650D02*
D03*
X162500Y157500D02*
D03*
X100000D02*
D03*
X137500Y195000D02*
D03*
X130000Y237500D02*
D03*
X167500Y160000D02*
D03*
X177500Y165000D02*
D03*
X172500Y162500D02*
D03*
X94598Y132098D02*
D03*
X72500Y150000D02*
D03*
X67500Y147500D02*
D03*
X182500Y157500D02*
D03*
X187500Y160000D02*
D03*
X192500Y162500D02*
D03*
X197500Y165000D02*
D03*
X102500Y207500D02*
D03*
X87500Y212500D02*
D03*
X72500D02*
D03*
X100000Y167500D02*
D03*
X102500Y172500D02*
D03*
X42500Y220000D02*
D03*
X47500Y222500D02*
D03*
X52500Y220000D02*
D03*
X30000Y172500D02*
D03*
X100000Y177500D02*
D03*
X62500Y220000D02*
D03*
X30000Y202500D02*
D03*
X27500Y177500D02*
D03*
X27500Y197500D02*
D03*
X85000Y240000D02*
D03*
X57500Y222500D02*
D03*
X67500D02*
D03*
X97500Y237500D02*
D03*
X105000D02*
D03*
X176000Y227550D02*
D03*
X163000Y227250D02*
D03*
Y215050D02*
D03*
X176000Y214750D02*
D03*
X188000Y215450D02*
D03*
D25*
X156900Y233850D02*
D03*
Y221150D02*
D03*
X169600Y233850D02*
D03*
Y221150D02*
D03*
X182300Y233850D02*
D03*
Y221150D02*
D03*
D26*
X20500Y222500D02*
D03*
Y217500D02*
D03*
Y212500D02*
D03*
Y207500D02*
D03*
Y202500D02*
D03*
Y197500D02*
D03*
Y192500D02*
D03*
Y187500D02*
D03*
Y182500D02*
D03*
Y177500D02*
D03*
Y172500D02*
D03*
Y167500D02*
D03*
Y162500D02*
D03*
Y157500D02*
D03*
Y152500D02*
D03*
Y147500D02*
D03*
X109500Y222500D02*
D03*
Y217500D02*
D03*
Y212500D02*
D03*
Y207500D02*
D03*
Y202500D02*
D03*
Y197500D02*
D03*
Y192500D02*
D03*
Y187500D02*
D03*
Y182500D02*
D03*
Y177500D02*
D03*
Y172500D02*
D03*
Y167500D02*
D03*
Y162500D02*
D03*
Y157500D02*
D03*
Y152500D02*
D03*
Y147500D02*
D03*
D27*
X27500Y140500D02*
D03*
X32500D02*
D03*
X37500D02*
D03*
X42500D02*
D03*
X27500Y229500D02*
D03*
X32500D02*
D03*
X37500D02*
D03*
X42500D02*
D03*
X47500D02*
D03*
X52500D02*
D03*
X57500D02*
D03*
X62500D02*
D03*
X67500D02*
D03*
X72500D02*
D03*
X77500D02*
D03*
X82500D02*
D03*
X87500D02*
D03*
X92500D02*
D03*
X97500D02*
D03*
X102500D02*
D03*
Y140500D02*
D03*
X97500D02*
D03*
X92500D02*
D03*
X87500D02*
D03*
X82500D02*
D03*
X77500D02*
D03*
X72500D02*
D03*
X67500D02*
D03*
X62500D02*
D03*
X57500D02*
D03*
X52500D02*
D03*
X47500D02*
D03*
D28*
X147500Y152000D02*
D03*
Y143000D02*
D03*
X10000Y195500D02*
D03*
Y204500D02*
D03*
Y179500D02*
D03*
Y170500D02*
D03*
X120000Y214500D02*
D03*
Y205500D02*
D03*
X130000Y214500D02*
D03*
Y205500D02*
D03*
Y223000D02*
D03*
Y232000D02*
D03*
X137500Y180500D02*
D03*
Y189500D02*
D03*
D29*
X161500Y150000D02*
D03*
Y135000D02*
D03*
X198500Y150000D02*
D03*
Y135000D02*
D03*
D30*
X167500Y150000D02*
D03*
X182500Y135000D02*
D03*
X192500Y150000D02*
D03*
X172500D02*
D03*
X177500D02*
D03*
X182500D02*
D03*
X187500D02*
D03*
X172500Y135000D02*
D03*
X177500D02*
D03*
X167500D02*
D03*
X187500D02*
D03*
X192500D02*
D03*
D31*
X123350Y156150D02*
D03*
X136650D02*
D03*
Y138850D02*
D03*
X123350D02*
D03*
D32*
X167000Y200000D02*
D03*
X158000D02*
D03*
X53000Y240000D02*
D03*
X62000D02*
D03*
X65500Y130000D02*
D03*
X74500D02*
D03*
X129500Y167500D02*
D03*
X120500D02*
D03*
X158000Y170000D02*
D03*
X167000D02*
D03*
X70500Y240000D02*
D03*
X79500D02*
D03*
D33*
X159250Y180450D02*
D03*
X165750D02*
D03*
Y189550D02*
D03*
X159250D02*
D03*
M02*
