G04*
G04 #@! TF.GenerationSoftware,Altium Limited,Altium Designer,25.1.2 (22)*
G04*
G04 Layer_Color=32896*
%FSLAX44Y44*%
%MOMM*%
G71*
G04*
G04 #@! TF.SameCoordinates,DB710AA7-E77E-4036-8C0A-EA680BC9F52C*
G04*
G04*
G04 #@! TF.FilePolarity,Positive*
G04*
G01*
G75*
%ADD11C,0.0200*%
%ADD43C,0.1000*%
D11*
X132080Y149327D02*
Y149078D01*
X131580Y148578D01*
X131080Y149078D01*
Y149327D01*
X131580Y148578D02*
Y147828D01*
X130581D02*
X130081D01*
X130331D01*
Y149327D01*
X130581Y149078D01*
X162814Y186665D02*
Y185416D01*
X162564Y185166D01*
X162064D01*
X161814Y185416D01*
Y186665D01*
X160315Y185166D02*
X161315D01*
X160315Y186166D01*
Y186416D01*
X160565Y186665D01*
X161065D01*
X161315Y186416D01*
X66040Y185650D02*
Y184400D01*
X65790Y184150D01*
X65290D01*
X65040Y184400D01*
Y185650D01*
X64541Y184150D02*
X64041D01*
X64291D01*
Y185650D01*
X64541Y185400D01*
X181356Y141732D02*
Y143231D01*
X180606D01*
X180356Y142982D01*
Y142482D01*
X180606Y142232D01*
X181356D01*
X180856D02*
X180356Y141732D01*
X178857D02*
X179856D01*
X178857Y142732D01*
Y142982D01*
X179107Y143231D01*
X179607D01*
X179856Y142982D01*
X138684Y184150D02*
Y185650D01*
X137934D01*
X137684Y185400D01*
Y184900D01*
X137934Y184650D01*
X138684D01*
X138184D02*
X137684Y184150D01*
X137184Y185400D02*
X136935Y185650D01*
X136435D01*
X136185Y185400D01*
Y185150D01*
X136435Y184900D01*
X136685D01*
X136435D01*
X136185Y184650D01*
Y184400D01*
X136435Y184150D01*
X136935D01*
X137184Y184400D01*
X131064Y226822D02*
Y228321D01*
X130314D01*
X130064Y228072D01*
Y227572D01*
X130314Y227322D01*
X131064D01*
X130564D02*
X130064Y226822D01*
X129565D02*
X129065D01*
X129315D01*
Y228321D01*
X129565Y228072D01*
X75692Y241300D02*
X74193D01*
Y240550D01*
X74442Y240300D01*
X74942D01*
X75192Y240550D01*
Y241300D01*
Y240800D02*
X75692Y240300D01*
Y239051D02*
X74193D01*
X74942Y239800D01*
Y238801D01*
X169942Y228321D02*
X170442D01*
X170192D01*
Y227072D01*
X170442Y226822D01*
X170692D01*
X170942Y227072D01*
X169443Y228072D02*
X169193Y228321D01*
X168693D01*
X168443Y228072D01*
Y227822D01*
X168693Y227572D01*
X168943D01*
X168693D01*
X168443Y227322D01*
Y227072D01*
X168693Y226822D01*
X169193D01*
X169443Y227072D01*
X162072Y170958D02*
X161822Y171208D01*
Y171708D01*
X162072Y171958D01*
X163072D01*
X163322Y171708D01*
Y171208D01*
X163072Y170958D01*
X163322Y170459D02*
Y169959D01*
Y170209D01*
X161822D01*
X162072Y170459D01*
Y169209D02*
X161822Y168959D01*
Y168459D01*
X162072Y168209D01*
X163072D01*
X163322Y168459D01*
Y168959D01*
X163072Y169209D01*
X162072D01*
Y200168D02*
X161822Y200418D01*
Y200918D01*
X162072Y201168D01*
X163072D01*
X163322Y200918D01*
Y200418D01*
X163072Y200168D01*
Y199669D02*
X163322Y199419D01*
Y198919D01*
X163072Y198669D01*
X162072D01*
X161822Y198919D01*
Y199419D01*
X162072Y199669D01*
X162322D01*
X162572Y199419D01*
Y198669D01*
X147844Y148062D02*
X148094Y148312D01*
X148594D01*
X148844Y148062D01*
Y147062D01*
X148594Y146812D01*
X148094D01*
X147844Y147062D01*
X147345Y148062D02*
X147095Y148312D01*
X146595D01*
X146345Y148062D01*
Y147812D01*
X146595Y147562D01*
X146345Y147312D01*
Y147062D01*
X146595Y146812D01*
X147095D01*
X147345Y147062D01*
Y147312D01*
X147095Y147562D01*
X147345Y147812D01*
Y148062D01*
X147095Y147562D02*
X146595D01*
X124480Y167656D02*
X124230Y167906D01*
Y168406D01*
X124480Y168656D01*
X125480D01*
X125730Y168406D01*
Y167906D01*
X125480Y167656D01*
X124230Y167157D02*
Y166157D01*
X124480D01*
X125480Y167157D01*
X125730D01*
X69616Y130318D02*
X69366Y130568D01*
Y131068D01*
X69616Y131318D01*
X70616D01*
X70866Y131068D01*
Y130568D01*
X70616Y130318D01*
X69366Y128819D02*
X69616Y129319D01*
X70116Y129818D01*
X70616D01*
X70866Y129569D01*
Y129069D01*
X70616Y128819D01*
X70366D01*
X70116Y129069D01*
Y129818D01*
X130318Y210546D02*
X130568Y210795D01*
X131068D01*
X131318Y210546D01*
Y209546D01*
X131068Y209296D01*
X130568D01*
X130318Y209546D01*
X128819Y210795D02*
X129818D01*
Y210046D01*
X129319Y210296D01*
X129069D01*
X128819Y210046D01*
Y209546D01*
X129069Y209296D01*
X129569D01*
X129818Y209546D01*
X120158Y210546D02*
X120408Y210795D01*
X120908D01*
X121158Y210546D01*
Y209546D01*
X120908Y209296D01*
X120408D01*
X120158Y209546D01*
X118909Y209296D02*
Y210795D01*
X119658Y210046D01*
X118659D01*
X10176Y175494D02*
X10426Y175744D01*
X10926D01*
X11176Y175494D01*
Y174494D01*
X10926Y174244D01*
X10426D01*
X10176Y174494D01*
X9676Y175494D02*
X9427Y175744D01*
X8927D01*
X8677Y175494D01*
Y175244D01*
X8927Y174994D01*
X9177D01*
X8927D01*
X8677Y174744D01*
Y174494D01*
X8927Y174244D01*
X9427D01*
X9676Y174494D01*
X56916Y240300D02*
X56666Y240550D01*
Y241050D01*
X56916Y241300D01*
X57916D01*
X58166Y241050D01*
Y240550D01*
X57916Y240300D01*
X58166Y238801D02*
Y239800D01*
X57166Y238801D01*
X56916D01*
X56666Y239051D01*
Y239551D01*
X56916Y239800D01*
X9922Y200386D02*
X10172Y200636D01*
X10672D01*
X10922Y200386D01*
Y199386D01*
X10672Y199136D01*
X10172D01*
X9922Y199386D01*
X9423Y199136D02*
X8923D01*
X9173D01*
Y200636D01*
X9423Y200386D01*
D43*
X19500Y231000D02*
G03*
X19500Y231000I-500J0D01*
G01*
X142500Y162000D02*
G03*
X142500Y162000I-500J0D01*
G01*
X157000Y193000D02*
G03*
X157000Y193000I-500J0D01*
G01*
M02*
