M48
;Layer_Color=9474304
;FILE_FORMAT=2:5
INCH,LZ
;TYPE=PLATED
T01F00S00C0.00787
T03F00S00C0.04000
;TYPE=NON_PLATED
T04F00S00C0.03900
%
T01
X0011811Y0067913
X0010827Y0069882
X0010827Y0077756
X0011811Y0079724
X0016732Y0086614
X0018701Y0087598
X0020669Y0086614
X0022638Y0087598
X0024606Y0086614
X0026575Y0087598
X0028543Y0083661
X0034449
X0040354Y0081693
X0040354Y007185
X003937Y0069882
X0040354Y0067913
X003937Y0065945
X0040354Y0063976
X003937Y0062008
X0037243Y0052007
X0028543Y0059055
X0026575Y0058071
X0050197
X0053799
X005315Y0065945
X0054134Y0076772
X0060039Y007874
X0064173Y0084665
Y0089468
X0069291Y0089587
Y0084547
X0074016Y0084823
X0073819Y0062992
X0075787Y0063976
X0077756Y0064961
X0069882
X0067913Y0063976
X0065945Y0062992
X0063976Y0062008
X007185
X0051181Y0093504
X0041339
X0038386
X0033465Y0094488
T03
X0007874Y0043307
X0017874
X0027874
X0037874
X0047874
X0057874
X0067874
X0077874
X0087874
X0097874
T04
X0056772Y0085567
Y0093567
X0076772Y0089567
M30
